<svg id="Ebene_1" data-name="Ebene 1" xmlns="http://www.w3.org/2000/svg" viewBox="0 0 128 128"><defs><style>.cls-1,.cls-2{fill:#fff;stroke:#000;stroke-miterlimit:10;}.cls-1{stroke-width:3px;}.cls-2{stroke-width:5px;}</style></defs><line class="cls-1" x1="8.38" y1="39.04" x2="119.62" y2="39.04"/><rect class="cls-2" x="8.38" y="26.66" width="111.24" height="74.68" rx="8.11"/><rect x="24" y="46.54" width="5" height="5"/><rect x="39" y="46.54" width="5" height="5"/><rect x="54" y="46.54" width="5" height="5"/><rect x="69" y="46.54" width="5" height="5"/><rect x="84" y="46.54" width="5" height="5"/><rect x="99" y="46.54" width="5" height="5"/><rect x="24" y="61.5" width="5" height="5"/><rect x="39" y="61.5" width="5" height="5"/><rect x="54" y="61.5" width="5" height="5"/><rect x="69" y="61.5" width="5" height="5"/><rect x="84" y="61.5" width="5" height="5"/><rect x="99" y="61.5" width="5" height="5"/><rect x="24" y="76.46" width="5" height="5"/><rect x="39" y="76.46" width="5" height="5"/><rect x="54" y="76.46" width="5" height="5"/><rect x="69" y="76.46" width="5" height="5"/><rect x="84" y="76.46" width="5" height="5"/><rect x="99" y="76.46" width="5" height="5"/><rect x="28.45" y="11.15" width="5.68" height="15.51"/><rect x="61.66" y="11.15" width="5.68" height="15.51"/><rect x="93.32" y="11.15" width="5.68" height="15.51"/></svg>