<svg width="32" height="32" xmlns="http://www.w3.org/2000/svg">
 <title/>
 <desc/>

 <g>
  <title>background</title>
  <rect fill="none" id="canvas_background" height="402" width="582" y="-1" x="-1"/>
 </g>
 <g>
  <title>Layer 1</title>
  <path id="key" d="m18.5324,19.4676l-4.5324,4.5324l-3,0l0,3l-3,0l0,3l-5,0l0,-5l10.5324,-10.5324c-0.34424,-0.92388 -0.5324,-1.92377 -0.5324,-2.9676c0,-4.69442 3.80558,-8.5 8.5,-8.5c4.69442,0 8.5,3.80558 8.5,8.5c0,4.69442 -3.80558,8.5 -8.5,8.5c-1.043831,0 -2.04372,-0.18816 -2.9676,-0.5324l0,0l0,0zm8.4676,-10.4676c0,-1.65685 -1.343149,-3 -3,-3c-1.656851,0 -3,1.34315 -3,3c0,1.65685 1.343149,3 3,3c1.656851,0 3,-1.34315 3,-3l0,0z"/>
 </g>
</svg>